# xmcd CD database file
#
# Track frame offsets:
#	150
#	18024
#	34388
#	48873
#	64965
#	80072
#	97118
#	116023
#	138774
#	158236
#	173674
#	190109
#	211989
#	243107
#
# Disc length: 3709 seconds
#
# Revision: 0
# Processed by: cddbd v1.5.2PL0 Copyright (c) Steve Scherf et al.
# Submitted via: CDex 1.51
#
DISCID=b60e7b0e
DTITLE=Gregory Porter - Liquid Spirit
DYEAR=2013
DGENRE=Jazz
TTITLE0=No Love Dying
TTITLE1=Liquid Spirit
TTITLE2=Lonesome Lover
TTITLE3=Water under Bridges
TTITLE4=Hey Laura
TTITLE5=Musical Genocide
TTITLE6=Wolfcry
TTITLE7=Free
TTITLE8=Brown Grass
TTITLE9=Wind Song
TTITLE10=The "In" Crowd
TTITLE11=Movin`
TTITLE12=When Love Was King
TTITLE13=I Fall In Love Too Easily
EXTD=YEAR: 2013
EXTT0=
EXTT1=
EXTT2=
EXTT3=
EXTT4=
EXTT5=
EXTT6=
EXTT7=
EXTT8=
EXTT9=
EXTT10=
EXTT11=
EXTT12=
EXTT13=
PLAYORDER=
